<svg xmlns="http://www.w3.org/2000/svg" xmlns:xlink="http://www.w3.org/1999/xlink" version="1.1" class="marks" width="1148" height="642" viewBox="0 0 1148 642"><rect width="1148" height="642" fill="white"/><g fill="none" stroke-miterlimit="10" transform="translate(64,5)"><g class="mark-group role-frame root" role="graphics-object" aria-roledescription="group mark container"><g transform="translate(0,0)"><path class="background" aria-hidden="true" d="M0.5,0.5h1000v600h-1000Z" stroke="#ddd"/><g><g class="mark-group role-axis" aria-hidden="true"><g transform="translate(0.5,600.5)"><path class="background" aria-hidden="true" d="M0,0h0v0h0Z" pointer-events="none"/><g><g class="mark-rule role-axis-grid" pointer-events="none"><line transform="translate(0,-600)" x2="0" y2="600" stroke="#ddd" stroke-width="1" opacity="1"/><line transform="translate(85,-600)" x2="0" y2="600" stroke="#ddd" stroke-width="1" opacity="1"/><line transform="translate(164,-600)" x2="0" y2="600" stroke="#ddd" stroke-width="1" opacity="1"/><line transform="translate(249,-600)" x2="0" y2="600" stroke="#ddd" stroke-width="1" opacity="1"/><line transform="translate(331,-600)" x2="0" y2="600" stroke="#ddd" stroke-width="1" opacity="1"/><line transform="translate(416,-600)" x2="0" y2="600" stroke="#ddd" stroke-width="1" opacity="1"/><line transform="translate(499,-600)" x2="0" y2="600" stroke="#ddd" stroke-width="1" opacity="1"/><line transform="translate(583,-600)" x2="0" y2="600" stroke="#ddd" stroke-width="1" opacity="1"/><line transform="translate(668,-600)" x2="0" y2="600" stroke="#ddd" stroke-width="1" opacity="1"/><line transform="translate(751,-600)" x2="0" y2="600" stroke="#ddd" stroke-width="1" opacity="1"/><line transform="translate(836,-600)" x2="0" y2="600" stroke="#ddd" stroke-width="1" opacity="1"/><line transform="translate(918,-600)" x2="0" y2="600" stroke="#ddd" stroke-width="1" opacity="1"/></g></g><path class="foreground" aria-hidden="true" d="" pointer-events="none" display="none"/></g></g><g class="mark-group role-axis" aria-hidden="true"><g transform="translate(0.5,0.5)"><path class="background" aria-hidden="true" d="M0,0h0v0h0Z" pointer-events="none"/><g><g class="mark-rule role-axis-grid" pointer-events="none"><line transform="translate(0,598)" x2="1000" y2="0" stroke="#ddd" stroke-width="1" opacity="1"/><line transform="translate(0,559)" x2="1000" y2="0" stroke="#ddd" stroke-width="1" opacity="1"/><line transform="translate(0,519)" x2="1000" y2="0" stroke="#ddd" stroke-width="1" opacity="1"/><line transform="translate(0,480)" x2="1000" y2="0" stroke="#ddd" stroke-width="1" opacity="1"/><line transform="translate(0,440)" x2="1000" y2="0" stroke="#ddd" stroke-width="1" opacity="1"/><line transform="translate(0,401)" x2="1000" y2="0" stroke="#ddd" stroke-width="1" opacity="1"/><line transform="translate(0,361)" x2="1000" y2="0" stroke="#ddd" stroke-width="1" opacity="1"/><line transform="translate(0,322)" x2="1000" y2="0" stroke="#ddd" stroke-width="1" opacity="1"/><line transform="translate(0,282)" x2="1000" y2="0" stroke="#ddd" stroke-width="1" opacity="1"/><line transform="translate(0,243)" x2="1000" y2="0" stroke="#ddd" stroke-width="1" opacity="1"/><line transform="translate(0,203)" x2="1000" y2="0" stroke="#ddd" stroke-width="1" opacity="1"/><line transform="translate(0,164)" x2="1000" y2="0" stroke="#ddd" stroke-width="1" opacity="1"/><line transform="translate(0,124)" x2="1000" y2="0" stroke="#ddd" stroke-width="1" opacity="1"/><line transform="translate(0,85)" x2="1000" y2="0" stroke="#ddd" stroke-width="1" opacity="1"/><line transform="translate(0,45)" x2="1000" y2="0" stroke="#ddd" stroke-width="1" opacity="1"/><line transform="translate(0,6)" x2="1000" y2="0" stroke="#ddd" stroke-width="1" opacity="1"/></g></g><path class="foreground" aria-hidden="true" d="" pointer-events="none" display="none"/></g></g><g class="mark-group role-axis" role="graphics-symbol" aria-roledescription="axis" aria-label="X-axis titled 'date' for a time scale with values from Monday, 01 January 2024, 12:00:00 AM to Tuesday, 31 December 2024, 12:00:00 AM"><g transform="translate(0.5,600.5)"><path class="background" aria-hidden="true" d="M0,0h0v0h0Z" pointer-events="none"/><g><g class="mark-rule role-axis-tick" pointer-events="none"><line transform="translate(0,0)" x2="0" y2="5" stroke="#888" stroke-width="1" opacity="1"/><line transform="translate(85,0)" x2="0" y2="5" stroke="#888" stroke-width="1" opacity="1"/><line transform="translate(164,0)" x2="0" y2="5" stroke="#888" stroke-width="1" opacity="1"/><line transform="translate(249,0)" x2="0" y2="5" stroke="#888" stroke-width="1" opacity="1"/><line transform="translate(331,0)" x2="0" y2="5" stroke="#888" stroke-width="1" opacity="1"/><line transform="translate(416,0)" x2="0" y2="5" stroke="#888" stroke-width="1" opacity="1"/><line transform="translate(499,0)" x2="0" y2="5" stroke="#888" stroke-width="1" opacity="1"/><line transform="translate(583,0)" x2="0" y2="5" stroke="#888" stroke-width="1" opacity="1"/><line transform="translate(668,0)" x2="0" y2="5" stroke="#888" stroke-width="1" opacity="1"/><line transform="translate(751,0)" x2="0" y2="5" stroke="#888" stroke-width="1" opacity="1"/><line transform="translate(836,0)" x2="0" y2="5" stroke="#888" stroke-width="1" opacity="1"/><line transform="translate(918,0)" x2="0" y2="5" stroke="#888" stroke-width="1" opacity="1"/></g><g class="mark-text role-axis-label" pointer-events="none"><text text-anchor="start" transform="translate(0,15)" font-family="sans-serif" font-size="10px" fill="#000" opacity="1">2024</text><text text-anchor="middle" transform="translate(84.93150684931507,15)" font-family="sans-serif" font-size="10px" fill="#000" opacity="1">February</text><text text-anchor="middle" transform="translate(164.3835616438356,15)" font-family="sans-serif" font-size="10px" fill="#000" opacity="1">March</text><text text-anchor="middle" transform="translate(249.20091324200914,15)" font-family="sans-serif" font-size="10px" fill="#000" opacity="1">April</text><text text-anchor="middle" transform="translate(331.39269406392697,15)" font-family="sans-serif" font-size="10px" fill="#000" opacity="1">May</text><text text-anchor="middle" transform="translate(416.324200913242,15)" font-family="sans-serif" font-size="10px" fill="#000" opacity="1">June</text><text text-anchor="middle" transform="translate(498.5159817351598,15)" font-family="sans-serif" font-size="10px" fill="#000" opacity="1">July</text><text text-anchor="middle" transform="translate(583.447488584475,15)" font-family="sans-serif" font-size="10px" fill="#000" opacity="1">August</text><text text-anchor="middle" transform="translate(668.37899543379,15)" font-family="sans-serif" font-size="10px" fill="#000" opacity="1">September</text><text text-anchor="middle" transform="translate(750.5707762557078,15)" font-family="sans-serif" font-size="10px" fill="#000" opacity="1">October</text><text text-anchor="middle" transform="translate(835.6164383561644,15)" font-family="sans-serif" font-size="10px" fill="#000" opacity="1">November</text><text text-anchor="middle" transform="translate(917.8082191780821,15)" font-family="sans-serif" font-size="10px" fill="#000" opacity="1">December</text></g><g class="mark-rule role-axis-domain" pointer-events="none"><line transform="translate(0,0)" x2="1000" y2="0" stroke="#888" stroke-width="1" opacity="1"/></g><g class="mark-text role-axis-title" pointer-events="none"><text text-anchor="middle" transform="translate(500,30)" font-family="sans-serif" font-size="11px" font-weight="bold" fill="#000" opacity="1">date</text></g></g><path class="foreground" aria-hidden="true" d="" pointer-events="none" display="none"/></g></g><g class="mark-group role-axis" role="graphics-symbol" aria-roledescription="axis" aria-label="Y-axis titled 'value' for a linear scale with values from 95,904 to 126,288"><g transform="translate(0.5,0.5)"><path class="background" aria-hidden="true" d="M0,0h0v0h0Z" pointer-events="none"/><g><g class="mark-rule role-axis-tick" pointer-events="none"><line transform="translate(0,598)" x2="-5" y2="0" stroke="#888" stroke-width="1" opacity="1"/><line transform="translate(0,559)" x2="-5" y2="0" stroke="#888" stroke-width="1" opacity="1"/><line transform="translate(0,519)" x2="-5" y2="0" stroke="#888" stroke-width="1" opacity="1"/><line transform="translate(0,480)" x2="-5" y2="0" stroke="#888" stroke-width="1" opacity="1"/><line transform="translate(0,440)" x2="-5" y2="0" stroke="#888" stroke-width="1" opacity="1"/><line transform="translate(0,401)" x2="-5" y2="0" stroke="#888" stroke-width="1" opacity="1"/><line transform="translate(0,361)" x2="-5" y2="0" stroke="#888" stroke-width="1" opacity="1"/><line transform="translate(0,322)" x2="-5" y2="0" stroke="#888" stroke-width="1" opacity="1"/><line transform="translate(0,282)" x2="-5" y2="0" stroke="#888" stroke-width="1" opacity="1"/><line transform="translate(0,243)" x2="-5" y2="0" stroke="#888" stroke-width="1" opacity="1"/><line transform="translate(0,203)" x2="-5" y2="0" stroke="#888" stroke-width="1" opacity="1"/><line transform="translate(0,164)" x2="-5" y2="0" stroke="#888" stroke-width="1" opacity="1"/><line transform="translate(0,124)" x2="-5" y2="0" stroke="#888" stroke-width="1" opacity="1"/><line transform="translate(0,85)" x2="-5" y2="0" stroke="#888" stroke-width="1" opacity="1"/><line transform="translate(0,45)" x2="-5" y2="0" stroke="#888" stroke-width="1" opacity="1"/><line transform="translate(0,6)" x2="-5" y2="0" stroke="#888" stroke-width="1" opacity="1"/></g><g class="mark-text role-axis-label" pointer-events="none"><text text-anchor="end" transform="translate(-7,601.1037334186987)" font-family="sans-serif" font-size="10px" fill="#000" opacity="1">96,000</text><text text-anchor="end" transform="translate(-7,561.609329188233)" font-family="sans-serif" font-size="10px" fill="#000" opacity="1">98,000</text><text text-anchor="end" transform="translate(-7,522.1149249577672)" font-family="sans-serif" font-size="10px" fill="#000" opacity="1">100,000</text><text text-anchor="end" transform="translate(-7,482.6205207273016)" font-family="sans-serif" font-size="10px" fill="#000" opacity="1">102,000</text><text text-anchor="end" transform="translate(-7,443.1261164968359)" font-family="sans-serif" font-size="10px" fill="#000" opacity="1">104,000</text><text text-anchor="end" transform="translate(-7,403.6317122663702)" font-family="sans-serif" font-size="10px" fill="#000" opacity="1">106,000</text><text text-anchor="end" transform="translate(-7,364.13730803590454)" font-family="sans-serif" font-size="10px" fill="#000" opacity="1">108,000</text><text text-anchor="end" transform="translate(-7,324.64290380543883)" font-family="sans-serif" font-size="10px" fill="#000" opacity="1">110,000</text><text text-anchor="end" transform="translate(-7,285.14849957497313)" font-family="sans-serif" font-size="10px" fill="#000" opacity="1">112,000</text><text text-anchor="end" transform="translate(-7,245.6540953445075)" font-family="sans-serif" font-size="10px" fill="#000" opacity="1">114,000</text><text text-anchor="end" transform="translate(-7,206.1596911140418)" font-family="sans-serif" font-size="10px" fill="#000" opacity="1">116,000</text><text text-anchor="end" transform="translate(-7,166.6652868835761)" font-family="sans-serif" font-size="10px" fill="#000" opacity="1">118,000</text><text text-anchor="end" transform="translate(-7,127.17088265311038)" font-family="sans-serif" font-size="10px" fill="#000" opacity="1">120,000</text><text text-anchor="end" transform="translate(-7,87.67647842264473)" font-family="sans-serif" font-size="10px" fill="#000" opacity="1">122,000</text><text text-anchor="end" transform="translate(-7,48.18207419217903)" font-family="sans-serif" font-size="10px" fill="#000" opacity="1">124,000</text><text text-anchor="end" transform="translate(-7,8.687669961713326)" font-family="sans-serif" font-size="10px" fill="#000" opacity="1">126,000</text></g><g class="mark-rule role-axis-domain" pointer-events="none"><line transform="translate(0,600)" x2="0" y2="-600" stroke="#888" stroke-width="1" opacity="1"/></g><g class="mark-text role-axis-title" pointer-events="none"><text text-anchor="middle" transform="translate(-47.1474609375,300) rotate(-90) translate(0,-2)" font-family="sans-serif" font-size="11px" font-weight="bold" fill="#000" opacity="1">value</text></g></g><path class="foreground" aria-hidden="true" d="" pointer-events="none" display="none"/></g></g><g class="mark-group role-scope pathgroup" role="graphics-object" aria-roledescription="group mark container"><g transform="translate(0,0)"><path class="background" aria-hidden="true" d="M0,0h1000v600h-1000Z"/><g><g class="mark-line role-mark marks" role="graphics-symbol" aria-roledescription="line mark container"><path d="M0,299.702L2.74,301.531L5.479,300.533L8.219,317.477L10.959,333.175L19.178,332.984L21.918,331.922L24.658,332.545L27.397,345.388L30.137,335.566L38.356,339.4L41.096,342.553L43.836,355.87L46.575,374.743L49.315,382.106L57.534,378.171L60.274,372.63L63.014,379.871L65.753,375.494L68.493,379.396L76.712,378.547L79.452,375.035L82.192,367.201L84.932,372.387L87.671,382.477L95.89,380.068L98.63,398.853L101.37,408.793L104.11,392.913L106.849,397.92L115.068,402.576L117.808,397.72L120.548,389.256L123.288,419.615L126.027,404.578L134.247,393.87L136.986,391.337L139.726,389.874L142.466,386.796L145.205,385.074L153.425,382.201L156.164,384.852L158.904,388.356L161.644,390.846L164.384,402.381L172.603,404.747L175.342,391.009L178.082,399.726L180.822,401.525L183.562,378.74L191.781,360.289L194.521,363.468L197.26,366.757L200,367.836L202.74,360.3L210.959,379.031L213.699,382.192L216.438,388.682L219.178,393.2L221.918,369.789L230.137,379.014L232.877,395.828L235.616,388.266L238.356,388.832L241.096,396.981L249.201,396.315L251.941,390.757L254.68,407.732L257.42,399.033L260.16,378.739L268.379,374.925L271.119,380.864L273.858,367.563L276.598,362.992L279.338,399.94L287.557,390.951L290.297,413.45L293.037,420.697L295.776,427.851L298.516,421.961L306.735,430.786L309.475,427.84L312.215,417.415L314.954,401.585L317.694,403.069L325.913,396.429L328.653,385.447L331.393,383.994L334.132,407.96L336.872,391.129L345.091,381.115L347.831,368.682L350.571,361.755L353.311,375.05L356.05,378.538L364.269,365.582L367.009,370.035L369.749,366.482L372.489,359.52L375.228,337.181L383.447,342.468L386.187,340.676L388.927,347.918L391.667,347.552L394.406,366.564L402.626,371.523L405.365,364.553L408.105,354.204L410.845,354.824L413.584,369.33L421.804,363.023L424.543,350.998L427.283,341.64L430.023,354.885L432.763,352.475L440.982,348.558L443.721,378.492L446.461,366.034L449.201,368.306L451.941,350.978L460.16,363.691L462.9,367.82L465.639,366.06L468.379,350.506L471.119,348.51L479.338,352.042L482.078,359.435L484.817,350.502L487.557,356.282L490.297,354.03L498.516,353.857L501.256,346.48L503.995,352.645L506.735,350.854L509.475,332.905L517.694,328.431L520.434,319.62L523.174,327.117L525.913,322.22L528.653,316.307L536.872,312.386L539.612,313.008L542.352,321.723L545.091,327.763L547.831,329.675L556.05,335.214L558.79,337.796L561.53,356.115L564.269,367.668L567.009,381.403L575.228,388.428L577.968,384.93L580.708,388.619L583.447,387.329L586.187,390.305L594.406,403.3L597.146,403.913L599.886,400.904L602.626,401.488L605.365,392.676L613.584,374.338L616.324,378.158L619.064,372.082L621.804,363.057L624.543,369.415L632.763,363.251L635.502,347.595L638.242,329.798L640.982,320.268L643.721,323.307L651.941,329.262L654.68,311.739L657.42,316.024L660.16,310.699L662.9,310.706L671.119,308.277L673.858,316.928L676.598,309.771L679.338,334.1L682.078,329.854L690.297,325.54L693.037,346.323L695.776,351.769L698.516,351.776L701.256,344.377L709.475,333.439L712.215,331.444L714.954,324.153L717.694,316.983L720.434,316.999L728.653,303.958L731.393,301.658L734.132,293.704L736.872,274.776L739.612,295.687L747.831,274.723L750.571,266.134L753.311,272.015L756.05,286.134L758.79,281.837L767.009,292.407L769.749,310.358L772.489,318.305L775.228,326.445L777.968,332.284L786.187,325.899L788.927,325.409L791.667,332.36L794.406,342.988L797.146,347.591L805.365,335.775L808.105,338.852L810.845,354.075L813.584,346.748L816.324,357.353L824.658,359.751L827.397,369.958L830.137,376.672L832.877,381.448L835.616,378.286L843.836,374.571L846.575,374.514L849.315,372.224L852.055,361.178L854.795,380.459L863.014,346.118L865.753,375.987L868.493,382.356L871.233,394.065L873.973,407.202L882.192,416.747L884.932,416.069L887.671,400.458L890.411,388.752L893.151,398.513L901.37,401.224L904.11,390.087L906.849,411.79L909.589,407.232L912.329,403.483L920.548,397.989L923.288,401.003L926.027,410.599L928.767,413.066L931.507,424.278L939.726,415.929L942.466,435.924L945.205,424.42L947.945,444.483L950.685,439.087L958.904,445.827L961.644,445.137L964.384,440.756L967.123,456.95L969.863,503.695L978.082,487.833L980.822,481.835L983.562,484.43L986.301,488.14L989.041,484.379L997.26,491.91L1000,491.51" stroke="#4c78a8" stroke-width="2"/></g></g><path class="foreground" aria-hidden="true" d="" display="none"/></g><g transform="translate(0,0)"><path class="background" aria-hidden="true" d="M0,0h1000v600h-1000Z"/><g><g class="mark-line role-mark marks" role="graphics-symbol" aria-roledescription="line mark container"><path d="M0,299.702L2.74,301.531L5.479,300.711L8.219,322.489L10.959,331.416L19.178,317.842L21.918,320.978L24.658,320.886L27.397,326.213L30.137,314.088L38.356,314.882L41.096,322.145L43.836,323.029L46.575,335.387L49.315,329.382L57.534,336.825L60.274,332.71L63.014,334.331L65.753,339.449L68.493,335.543L76.712,344.562L79.452,339.313L82.192,344.779L84.932,341.943L87.671,349.148L95.89,337.047L98.63,352.067L101.37,361.661L104.11,358.619L106.849,357.485L115.068,353.966L117.808,354.043L120.548,351.652L123.288,370.411L126.027,365.354L134.247,354.913L136.986,354.209L139.726,352.276L142.466,349.09L145.205,345.798L153.425,343.76L156.164,349.629L158.904,338.618L161.644,343.794L164.384,340.581L172.603,350.954L175.342,339.108L178.082,338.881L180.822,339.337L183.562,327.919L191.781,317.114L194.521,322.772L197.26,325.54L200,324.658L202.74,318.17L210.959,335.694L213.699,332.08L216.438,340.279L219.178,336.771L221.918,321.655L230.137,338.177L232.877,347.044L235.616,340.817L238.356,342.59L241.096,349.102L249.201,350.457L251.941,350.461L254.68,363.993L257.42,357.595L260.16,340.963L268.379,343.461L271.119,345.085L273.858,336.356L276.598,340.249L279.338,361.485L287.557,366.216L290.297,383.221L293.037,384.442L295.776,382.837L298.516,376.185L306.735,385.239L309.475,379.862L312.215,378.877L314.954,364.585L317.694,369.633L325.913,365.548L328.653,364.88L331.393,368.316L334.132,375.008L336.872,364.612L345.091,365.047L347.831,359.758L350.571,355.736L353.311,361.248L356.05,361.456L364.269,355.132L367.009,356.071L369.749,351.749L372.489,344.827L375.228,331.709L383.447,335.6L386.187,337.938L388.927,338.881L391.667,338.022L394.406,347.593L402.626,349.34L405.365,342.681L408.105,339.664L410.845,339.809L413.584,353.24L421.804,345.602L424.543,338.608L427.283,329.149L430.023,333.333L432.763,336.118L440.982,332.051L443.721,356.986L446.461,355.838L449.201,362.466L451.941,348.445L460.16,366.316L462.9,371.218L465.639,364.778L468.379,361.49L471.119,362.18L479.338,369.975L482.078,372.81L484.817,361.272L487.557,368.472L490.297,372.089L498.516,368.143L501.256,362.98L503.995,362.535L506.735,362.892L509.475,349.766L517.694,346.406L520.434,341.493L523.174,346.86L525.913,344.676L528.653,338.429L536.872,332.031L539.612,331.223L542.352,333.921L545.091,329.724L547.831,323.739L556.05,328.834L558.79,328.928L561.53,331.016L564.269,341.35L567.009,345.339L575.228,339.742L577.968,339.622L580.708,349.008L583.447,345.119L586.187,348.402L594.406,351.762L597.146,328.701L599.886,323.711L602.626,329.057L605.365,319.885L613.584,328.664L616.324,325.637L619.064,320.078L621.804,316.327L624.543,306.907L632.763,312.75L635.502,306.271L638.242,296.36L640.982,282.355L643.721,280.797L651.941,280.819L654.68,275.032L657.42,279.129L660.16,275.991L662.9,284.947L671.119,295.451L673.858,302.225L676.598,296.782L679.338,301.226L682.078,291.353L690.297,288.838L693.037,291.902L695.776,303.084L698.516,304.869L701.256,307.105L709.475,299.013L712.215,290.601L714.954,287.5L717.694,285.021L720.434,287.009L728.653,279.393L731.393,277.425L734.132,286.985L736.872,275.227L739.612,281.096L747.831,273.901L750.571,275.142L753.311,286.626L756.05,303.629L758.79,304.683L767.009,306.002L769.749,320.071L772.489,313.448L775.228,316.319L777.968,321.447L786.187,324.533L788.927,322.539L791.667,331.07L794.406,332.534L797.146,335.895L805.365,341.84L808.105,342.645L810.845,347.459L813.584,354.782L816.324,352.639L824.658,346.715L827.397,351.578L830.137,347.615L832.877,345.272L835.616,337.61L843.836,329.781L846.575,336.985L849.315,332.186L852.055,327.746L854.795,362.961L863.014,351.627L865.753,367.758L868.493,381.906L871.233,387.569L873.973,399.346L882.192,403.667L884.932,404.819L887.671,390.729L890.411,387.956L893.151,401.059L901.37,417.814L904.11,414.118L906.849,418.415L909.589,408.203L912.329,397.402L920.548,395.07L923.288,400.043L926.027,409.619L928.767,413.462L931.507,407.105L939.726,389.996L942.466,397.962L945.205,400.717L947.945,405.293L950.685,407.571L958.904,418.011L961.644,407.595L964.384,404.729L967.123,414.105L969.863,446.292L978.082,436.258L980.822,422.818L983.562,428.26L986.301,430.786L989.041,429.337L997.26,425.256L1000,424.309" stroke="#f58518" stroke-width="2"/></g></g><path class="foreground" aria-hidden="true" d="" display="none"/></g><g transform="translate(0,0)"><path class="background" aria-hidden="true" d="M0,0h1000v600h-1000Z"/><g><g class="mark-line role-mark marks" role="graphics-symbol" aria-roledescription="line mark container"><path d="M0,299.702L2.74,301.531L5.479,297.523L8.219,318.28L10.959,315.651L19.178,304.214L21.918,300.526L24.658,297.608L27.397,304.682L30.137,295.443L38.356,291.934L41.096,299.161L43.836,303.571L46.575,316.018L49.315,304.749L57.534,305.259L60.274,305.456L63.014,303.444L65.753,306.726L68.493,302.95L76.712,306.934L79.452,302.718L82.192,303.754L84.932,305.729L87.671,308.029L95.89,298.132L98.63,315.916L101.37,333.041L104.11,320.628L106.849,319.626L115.068,317.531L117.808,318.949L120.548,312.957L123.288,325.623L126.027,329.003L134.247,321.488L136.986,320.944L139.726,321.113L142.466,318.633L145.205,314.911L153.425,309.489L156.164,312.772L158.904,305.759L161.644,310.281L164.384,309.022L172.603,319.207L175.342,308.779L178.082,305.603L180.822,304.01L183.562,295.921L191.781,281.33L194.521,278.818L197.26,285.377L200,287.875L202.74,285.764L210.959,298.776L213.699,297.423L216.438,304.74L219.178,300.368L221.918,286.305L230.137,311.517L232.877,320.504L235.616,313.478L238.356,315.716L241.096,320.53L249.201,316.45L251.941,314.203L254.68,332.581L257.42,326.986L260.16,311.25L268.379,315.525L271.119,318.415L273.858,310.488L276.598,310.29L279.338,332.297L287.557,331.15L290.297,348.874L293.037,347.784L295.776,348.116L298.516,347.102L306.735,353.989L309.475,362.023L312.215,364.589L314.954,342.47L317.694,345.605L325.913,338.9L328.653,333.401L331.393,330.167L334.132,339.057L336.872,331.111L345.091,333.656L347.831,333.25L350.571,327.832L353.311,340.06L356.05,340.952L364.269,336.646L367.009,335.126L369.749,328.674L372.489,321.859L375.228,305.637L383.447,308.259L386.187,306.234L388.927,303.49L391.667,301.392L394.406,303.413L402.626,307.306L405.365,300.344L408.105,293.903L410.845,294.436L413.584,308.411L421.804,301.828L424.543,295.972L427.283,285.87L430.023,291.375L432.763,288.985L440.982,289.118L443.721,302.177L446.461,298.552L449.201,298.05L451.941,288.882L460.16,299.194L462.9,309.151L465.639,304.717L468.379,303.14L471.119,303.226L479.338,312.638L482.078,315.443L484.817,305.107L487.557,307.693L490.297,316.115L498.516,313.717L501.256,313.378L503.995,313.793L506.735,308.77L509.475,294.548L517.694,293.269L520.434,282.594L523.174,287.549L525.913,286.812L528.653,272.96L536.872,262.175L539.612,256.533L542.352,262.058L545.091,256.589L547.831,253.005L556.05,259.959L558.79,262.776L561.53,263.124L564.269,271.099L567.009,273.217L575.228,277.28L577.968,275.666L580.708,279.698L583.447,279.032L586.187,281.235L594.406,298.679L597.146,289.951L599.886,292.83L602.626,311.168L605.365,303.053L613.584,297.864L616.324,293.905L619.064,289.192L621.804,281.167L624.543,281.417L632.763,273.889L635.502,262.73L638.242,257.609L640.982,243.966L643.721,237.92L651.941,229.45L654.68,218.098L657.42,221.176L660.16,209.318L662.9,218.719L671.119,225.173L673.858,231.365L676.598,228.06L679.338,233.651L682.078,224.648L690.297,222.683L693.037,228.562L695.776,240.604L698.516,237.526L701.256,244.8L709.475,234.153L712.215,226.674L714.954,219.342L717.694,222.94L720.434,217.478L728.653,205.372L731.393,197.558L734.132,191.164L736.872,182L739.612,194.908L747.831,180.049L750.571,185.082L753.311,191.416L756.05,211.692L758.79,210.974L767.009,233.071L769.749,235.976L772.489,236.337L775.228,237.568L777.968,240.784L786.187,243.098L788.927,241.546L791.667,243.891L794.406,240.504L797.146,252.587L805.365,247.558L808.105,250.133L810.845,256.646L813.584,260.062L816.324,266.264L824.658,258.831L827.397,260.805L830.137,258.013L832.877,249.587L835.616,258.972L843.836,267.087L846.575,262.543L849.315,257.285L852.055,249.75L854.795,272.453L863.014,256.42L865.753,267.873L868.493,279.451L871.233,298.872L873.973,305.852L882.192,310.023L884.932,320.629L887.671,307.982L890.411,305.084L893.151,312.792L901.37,326.523L904.11,323.29L906.849,330.884L909.589,322.91L912.329,308.501L920.548,302.88L923.288,303.519L926.027,311.86L928.767,315.17L931.507,304.568L939.726,291.475L942.466,297.363L945.205,298.154L947.945,292.998L950.685,292.298L958.904,311.777L961.644,316.949L964.384,304.606L967.123,306.276L969.863,334.593L978.082,339.112L980.822,326.795L983.562,332.941L986.301,334.639L989.041,331.166L997.26,334.214L1000,326.056" stroke="#e45756" stroke-width="2"/></g></g><path class="foreground" aria-hidden="true" d="" display="none"/></g><g transform="translate(0,0)"><path class="background" aria-hidden="true" d="M0,0h1000v600h-1000Z"/><g><g class="mark-line role-mark marks" role="graphics-symbol" aria-roledescription="line mark container"><path d="M0,299.702L2.74,301.531L5.479,300.025L8.219,318.418L10.959,337.391L19.178,354.168L21.918,355.523L24.658,350.081L27.397,354.503L30.137,370.113L38.356,362.081L41.096,363.722L43.836,374.01L46.575,394.024L49.315,401.923L57.534,407.986L60.274,406.431L63.014,405.976L65.753,408.175L68.493,399.653L76.712,403.603L79.452,403.716L82.192,397.77L84.932,395.323L87.671,389.38L95.89,383.446L98.63,408.935L101.37,412.839L104.11,401.275L106.849,407.549L115.068,420.826L117.808,423.646L120.548,419.652L123.288,443.755L126.027,440.867L134.247,430.592L136.986,434.018L139.726,432.792L142.466,432.392L145.205,436.32L153.425,437.122L156.164,441.874L158.904,438.135L161.644,440.947L164.384,438.94L172.603,434.766L175.342,430.724L178.082,437.823L180.822,432.703L183.562,419.273L191.781,398.896L194.521,387.385L197.26,387.233L200,398.353L202.74,397.396L210.959,410.073L213.699,415.659L216.438,424.522L219.178,445.099L221.918,440.945L230.137,454.331L232.877,447.991L235.616,448.787L238.356,451.482L241.096,450.815L249.201,450.595L251.941,449.701L254.68,454.571L257.42,453.844L260.16,451.754L268.379,449.983L271.119,455.649L273.858,455.675L276.598,457.65L279.338,471.476L287.557,476.175L290.297,478.983L293.037,487.704L295.776,491.755L298.516,489.858L306.735,497.166L309.475,495.105L312.215,495.62L314.954,490.676L317.694,501.223L325.913,507.248L328.653,535.467L331.393,516.368L334.132,531.19L336.872,506.248L345.091,474.297L347.831,480.847L350.571,487.577L353.311,496.201L356.05,504.356L364.269,505.149L367.009,508.78L369.749,514.301L372.489,515.119L375.228,488.401L383.447,502.118L386.187,510.468L388.927,516.481L391.667,513.156L394.406,522.207L402.626,524.91L405.365,523.867L408.105,523.38L410.845,526.922L413.584,534.44L421.804,525.364L424.543,525.013L427.283,512.304L430.023,499.331L432.763,510.849L440.982,507.785L443.721,524.021L446.461,522.887L449.201,525.434L451.941,522L460.16,529.003L462.9,532.034L465.639,535.051L468.379,534.445L471.119,537.841L479.338,548.761L482.078,559.288L484.817,554.791L487.557,557.168L490.297,566.408L498.516,568.729L501.256,571.5L503.995,578.63L506.735,580.87L509.475,578.481L517.694,575.443L520.434,565.171L523.174,573.473L525.913,574.303L528.653,575.294L536.872,535.305L539.612,538.259L542.352,541.448L545.091,540.406L547.831,508.35L556.05,524.508L558.79,527.567L561.53,521.118L564.269,509.263L567.009,486.712L575.228,481.127L577.968,487.245L580.708,485.669L583.447,466.067L586.187,431.098L594.406,419.876L597.146,369.731L599.886,375.638L602.626,360.586L605.365,372.326L613.584,400.623L616.324,388.391L619.064,386.464L621.804,394.329L624.543,392.386L632.763,418.025L635.502,403.998L638.242,388.283L640.982,363.12L643.721,363.507L651.941,372.057L654.68,347.641L657.42,354.811L660.16,346.276L662.9,351.578L671.119,359.954L673.858,381.409L676.598,385.401L679.338,366.274L682.078,332.617L690.297,337.158L693.037,321.773L695.776,333.552L698.516,317.739L701.256,323.407L709.475,311.849L712.215,294.552L714.954,299.589L717.694,314.813L720.434,325.762L728.653,329.712L731.393,344.811L734.132,339.146L736.872,332.892L739.612,352.719L747.831,360.422L750.571,325.945L753.311,344.687L756.05,347.618L758.79,387.369L767.009,389.875L769.749,419.746L772.489,404.191L775.228,407.125L777.968,419.883L786.187,414.682L788.927,419.941L791.667,429.664L794.406,418.396L797.146,424.117L805.365,430.769L808.105,432.087L810.845,440.835L813.584,451.173L816.324,467.811L824.658,457.252L827.397,472.245L830.137,475.284L832.877,475.053L835.616,474.122L843.836,455.522L846.575,464.24L849.315,459.49L852.055,455.313L854.795,489.02L863.014,475.038L865.753,471.585L868.493,483.104L871.233,494.796L873.973,506.024L882.192,516.927L884.932,495.665L887.671,493.192L890.411,494.259L893.151,502.555L901.37,490.102L904.11,487.615L906.849,487.96L909.589,469.146L912.329,450.043L920.548,445.686L923.288,429.64L926.027,425.118L928.767,432.735L931.507,439.718L939.726,431.925L942.466,433.391L945.205,452.845L947.945,458.372L950.685,461.402L958.904,469.787L961.644,478.039L964.384,484.956L967.123,483.016L969.863,500.729L978.082,531.496L980.822,517.648L983.562,525.626L986.301,526.694L989.041,525.065L997.26,533.318L1000,535.138" stroke="#72b7b2" stroke-width="2"/></g></g><path class="foreground" aria-hidden="true" d="" display="none"/></g><g transform="translate(0,0)"><path class="background" aria-hidden="true" d="M0,0h1000v600h-1000Z"/><g><g class="mark-line role-mark marks" role="graphics-symbol" aria-roledescription="line mark container"><path d="M0,299.702L2.74,301.531L5.479,298.851L8.219,324.049L10.959,329.756L19.178,327.026L21.918,323.054L24.658,323.794L27.397,329.979L30.137,329.368L38.356,327.025L41.096,330.388L43.836,345.951L46.575,362.327L49.315,367.328L57.534,370.974L60.274,370.167L63.014,384.822L65.753,375.251L68.493,374.267L76.712,376.269L79.452,375.963L82.192,365.026L84.932,365.016L87.671,371.302L95.89,361.479L98.63,385.973L101.37,391.915L104.11,375.705L106.849,374.827L115.068,372.218L117.808,362.611L120.548,361.986L123.288,392.469L126.027,380.641L134.247,371.353L136.986,364.081L139.726,358.123L142.466,353.526L145.205,347.467L153.425,341.276L156.164,348.946L158.904,350.947L161.644,353.779L164.384,374.831L172.603,382.355L175.342,371.806L178.082,376.529L180.822,380.192L183.562,363.537L191.781,345.108L194.521,349.073L197.26,352.523L200,358.303L202.74,351.951L210.959,369.119L213.699,378.535L216.438,386.373L219.178,392.581L221.918,378.038L230.137,394.67L232.877,412.221L235.616,408.134L238.356,406.642L241.096,414.543L249.201,418.403L251.941,413.94L254.68,428.246L257.42,422.174L260.16,403.745L268.379,401.377L271.119,409.779L273.858,397.318L276.598,388.623L279.338,418.973L287.557,411.476L290.297,432.426L293.037,443.847L295.776,445.184L298.516,440.703L306.735,447.929L309.475,446.531L312.215,437.51L314.954,427.877L317.694,432.257L325.913,426.211L328.653,424.891L331.393,421.639L334.132,450.648L336.872,433.58L345.091,424.491L347.831,409.012L350.571,406.239L353.311,412.596L356.05,409.674L364.269,399.805L367.009,404.001L369.749,402.564L372.489,392.973L375.228,364.424L383.447,366.177L386.187,365.648L388.927,373.637L391.667,376.653L394.406,378.039L402.626,378.28L405.365,370.08L408.105,359.283L410.845,361.483L413.584,374.357L421.804,372.376L424.543,357.784L427.283,343.468L430.023,349.154L432.763,342.983L440.982,342.612L443.721,376.127L446.461,364.427L449.201,360.152L451.941,346.418L460.16,358.512L462.9,364.321L465.639,365.315L468.379,361.452L471.119,364.38L479.338,368.991L482.078,372.151L484.817,366.309L487.557,369.412L490.297,380.655L498.516,380.803L501.256,375.917L503.995,387.785L506.735,384.314L509.475,371.462L517.694,369.4L520.434,357.919L523.174,367.648L525.913,363.727L528.653,374.806L536.872,373.931L539.612,375.307L542.352,387.543L545.091,386.311L547.831,383.768L556.05,394.053L558.79,400.493L561.53,416.591L564.269,427.945L567.009,438.53L575.228,448.431L577.968,449.062L580.708,455.574L583.447,442.654L586.187,430L594.406,431.721L597.146,429.311L599.886,430.925L602.626,423.161L605.365,410.582L613.584,409.375L616.324,410.3L619.064,399.338L621.804,387.98L624.543,409.258L632.763,414.046L635.502,391.171L638.242,372.476L640.982,353.106L643.721,355.102L651.941,354.353L654.68,334.401L657.42,340.35L660.16,326.455L662.9,323.75L671.119,319.908L673.858,324.24L676.598,330.071L679.338,345.777L682.078,342.495L690.297,332.893L693.037,349.688L695.776,361.043L698.516,356.878L701.256,363.332L709.475,349.372L712.215,351.171L714.954,344.978L717.694,342.053L720.434,337.204L728.653,329.144L731.393,327.286L734.132,316.328L736.872,290.792L739.612,317.78L747.831,294.007L750.571,287.319L753.311,293.759L756.05,317.941L758.79,323.511L767.009,337.508L769.749,359.035L772.489,363.985L775.228,365.785L777.968,385.512L786.187,377.977L788.927,375.886L791.667,381.793L794.406,389.934L797.146,388.192L805.365,386.905L808.105,389.73L810.845,403.119L813.584,398.485L816.324,406.89L824.658,408.789L827.397,418.399L830.137,415.91L832.877,419.635L835.616,419.651L843.836,417.137L846.575,416.321L849.315,416.373L852.055,408.745L854.795,431.173L863.014,403.152L865.753,422.782L868.493,425.846L871.233,438.034L873.973,453.359L882.192,462.482L884.932,459.654L887.671,448.208L890.411,437.924L893.151,451.18L901.37,461.886L904.11,458.681L906.849,473.638L909.589,463.794L912.329,447.494L920.548,444.287L923.288,442.157L926.027,450.615L928.767,457.109L931.507,460.178L939.726,448.648L942.466,467.575L945.205,461.269L947.945,481.125L950.685,481.102L958.904,493.192L961.644,489.901L964.384,481.141L967.123,497.664L969.863,549.791L978.082,539.498L980.822,531.207L983.562,532.979L986.301,534.276L989.041,531.323L997.26,540.686L1000,536.163" stroke="#54a24b" stroke-width="2"/></g></g><path class="foreground" aria-hidden="true" d="" display="none"/></g><g transform="translate(0,0)"><path class="background" aria-hidden="true" d="M0,0h1000v600h-1000Z"/><g><g class="mark-line role-mark marks" role="graphics-symbol" aria-roledescription="line mark container"><path d="M0,299.702L2.74,301.531L5.479,296.852L8.219,286.13L10.959,288.145L19.178,277.065L21.918,278.422L24.658,282.032L27.397,276.909L30.137,274.959L38.356,276.85L41.096,272.096L43.836,268.629L46.575,258.705L49.315,251.801L57.534,260.897L60.274,268.384L63.014,259.909L65.753,264.249L68.493,253.611L76.712,263.729L79.452,261.488L82.192,272.348L84.932,272.855L87.671,266.6L95.89,277.296L98.63,258.964L101.37,248.977L104.11,257.887L106.849,264.738L115.068,262.043L117.808,266.816L120.548,259.375L123.288,247.546L126.027,251.555L134.247,261.454L136.986,260.935L139.726,253.589L142.466,254.13L145.205,256.324L153.425,257.879L156.164,258.553L158.904,254.447L161.644,253.532L164.384,241.345L172.603,245.803L175.342,244.775L178.082,243.875L180.822,241.539L183.562,251.476L191.781,260.78L194.521,259.737L197.26,261.375L200,257.149L202.74,260.542L210.959,252.073L213.699,246.754L216.438,255.368L219.178,243.176L221.918,259.503L230.137,252.087L232.877,235.966L235.616,240.292L238.356,241.524L241.096,243.573L249.201,249.347L251.941,251.326L254.68,245.384L257.42,246.748L260.16,250.555L268.379,249.46L271.119,239.919L273.858,243.198L276.598,246.008L279.338,224.896L287.557,226.81L290.297,216.854L293.037,208.366L295.776,200.31L298.516,211.21L306.735,215.999L309.475,218.223L312.215,222.647L314.954,224.67L317.694,221.877L325.913,231.469L328.653,226.299L331.393,230.037L334.132,208.469L336.872,217.994L345.091,230.307L347.831,225.776L350.571,226.898L353.311,218.843L356.05,219.301L364.269,228.826L367.009,226.853L369.749,229.01L372.489,228.247L375.228,239.421L383.447,236.001L386.187,241.15L388.927,236.927L391.667,231.651L394.406,227.397L402.626,219.48L405.365,230.715L408.105,236.66L410.845,231.894L413.584,223.832L421.804,228.374L424.543,235.373L427.283,235.136L430.023,226.339L432.763,225.448L440.982,228.937L443.721,216.029L446.461,211.345L449.201,214.395L451.941,220.319L460.16,220.495L462.9,219.288L465.639,223.827L468.379,220.183L471.119,224.594L479.338,226.859L482.078,223.183L484.817,227.597L487.557,229.845L490.297,220.254L498.516,222.92L501.256,227.494L503.995,216.618L506.735,229.494L509.475,232.24L517.694,235.34L520.434,229.594L523.174,237.674L525.913,231.92L528.653,231.349L536.872,231.672L539.612,229.901L542.352,231.085L545.091,227.963L547.831,228.001L556.05,221.444L558.79,220.217L561.53,211.465L564.269,210.108L567.009,207.934L575.228,202.972L577.968,201.925L580.708,200.076L583.447,196.225L586.187,208.234L594.406,192.143L597.146,193.225L599.886,209.252L602.626,212.825L605.365,208.843L613.584,218.681L616.324,215.019L619.064,212.802L621.804,226.975L624.543,219.429L632.763,214.165L635.502,227.395L638.242,237.747L640.982,233.934L643.721,243.536L651.941,232.485L654.68,256.714L657.42,260.488L660.16,265.67L662.9,259.243L671.119,258.932L673.858,258.652L676.598,256.303L679.338,249.432L682.078,251.612L690.297,256.571L693.037,244.582L695.776,245.616L698.516,236.512L701.256,241.93L709.475,247.69L712.215,240.913L714.954,244.649L717.694,239.858L720.434,237.124L728.653,246.853L731.393,244.381L734.132,249.939L736.872,271.964L739.612,255.704L747.831,258.777L750.571,253.063L753.311,254.968L756.05,263.006L758.79,259.267L767.009,250.829L769.749,247.731L772.489,234.698L775.228,232.039L777.968,221.18L786.187,216.415L788.927,206.661L791.667,208.669L794.406,208.575L797.146,211.914L805.365,204.525L808.105,212.965L810.845,201.767L813.584,208.1L816.324,198.853L824.658,199.032L827.397,191.372L830.137,192.382L832.877,186.878L835.616,187.665L843.836,180.506L846.575,188.463L849.315,186.238L852.055,205.471L854.795,181.335L863.014,195.816L865.753,189.322L868.493,191.551L871.233,183.439L873.973,177.103L882.192,163.005L884.932,161.058L887.671,169.406L890.411,180.302L893.151,179.154L901.37,178.844L904.11,184.876L906.849,154.319L909.589,160.836L912.329,169.017L920.548,169.723L923.288,170.39L926.027,166.32L928.767,168.95L931.507,161.388L939.726,166.701L942.466,150.173L945.205,146.971L947.945,146.761L950.685,147.721L958.904,140.849L961.644,135.699L964.384,132.638L967.123,125.83L969.863,104.868L978.082,106.164L980.822,113.189L983.562,111.089L986.301,115.281L989.041,114.31L997.26,105.597L1000,107.083" stroke="#eeca3b" stroke-width="2"/></g></g><path class="foreground" aria-hidden="true" d="" display="none"/></g><g transform="translate(0,0)"><path class="background" aria-hidden="true" d="M0,0h1000v600h-1000Z"/><g><g class="mark-line role-mark marks" role="graphics-symbol" aria-roledescription="line mark container"><path d="M0,299.702L2.74,301.531L5.479,294.362L8.219,275.424L10.959,284.89L19.178,272.133L21.918,272.384L24.658,281.594L27.397,271.472L30.137,272.622L38.356,273.417L41.096,267.524L43.836,261.494L46.575,246.668L49.315,233.961L57.534,230.561L60.274,227.938L63.014,225.451L65.753,224.921L68.493,242.955L76.712,235.081L79.452,236.039L82.192,247.242L84.932,244.72L87.671,242.807L95.89,257.138L98.63,228.769L101.37,221.184L104.11,224.325L106.849,215.531L115.068,213.299L117.808,215.955L120.548,203.63L123.288,179.987L126.027,185.518L134.247,197.018L136.986,196.396L139.726,186.807L142.466,193.885L145.205,198.582L153.425,195.695L156.164,197.389L158.904,195.691L161.644,202.785L164.384,198.327L172.603,187.39L175.342,185.478L178.082,183.034L180.822,187.926L183.562,188.834L191.781,201.11L194.521,204.498L197.26,205.667L200,203.621L202.74,199.958L210.959,188.045L213.699,185.784L216.438,182.502L219.178,173.782L221.918,181.12L230.137,151.241L232.877,149.199L235.616,144.225L238.356,133.971L241.096,132.16L249.201,141.085L251.941,138.28L254.68,133.044L257.42,125.667L260.16,135.476L268.379,141.532L271.119,137.551L273.858,130.4L276.598,139.01L279.338,110.448L287.557,120.814L290.297,112.441L293.037,114.135L295.776,108.855L298.516,117.726L306.735,117.852L309.475,117.85L312.215,113.438L314.954,109.894L317.694,106.617L325.913,113.663L328.653,104.803L331.393,118.367L334.132,92.027L336.872,100.799L345.091,121.041L347.831,130.676L350.571,126.301L353.311,124.024L356.05,124.744L364.269,131.725L367.009,127.962L369.749,124.476L372.489,124.573L375.228,142.692L383.447,127.912L386.187,125.08L388.927,119.217L391.667,114.317L394.406,108.313L402.626,109.241L405.365,109.361L408.105,112.281L410.845,112.617L413.584,115.171L421.804,138.825L424.543,140.195L427.283,158.082L430.023,170.366L432.763,165.143L440.982,172.269L443.721,157.815L446.461,152.132L449.201,151.058L451.941,160.711L460.16,164.994L462.9,170.747L465.639,178.386L468.379,185.913L471.119,188.33L479.338,168.324L482.078,160.564L484.817,160.078L487.557,157.694L490.297,151.307L498.516,148.416L501.256,144.201L503.995,136.387L506.735,137.88L509.475,140.882L517.694,142.317L520.434,153.399L523.174,153.571L525.913,148.761L528.653,141.253L536.872,151.121L539.612,150.752L542.352,160.814L545.091,162.356L547.831,192.317L556.05,176.654L558.79,174.395L561.53,170.745L564.269,168.243L567.009,187.101L575.228,195.032L577.968,185.876L580.708,183.957L583.447,189.675L586.187,205.001L594.406,214.576L597.146,259.896L599.886,266.266L602.626,272.657L605.365,246.057L613.584,232.819L616.324,233.99L619.064,233.656L621.804,241.426L624.543,235.653L632.763,213.292L635.502,230.172L638.242,246.105L640.982,263.229L643.721,273.566L651.941,264.388L654.68,284.121L657.42,284.184L660.16,297.709L662.9,295.902L671.119,284.21L673.858,274.628L676.598,271.391L679.338,275.912L682.078,282.443L690.297,291.846L693.037,289.827L695.776,276.767L698.516,282.639L701.256,267.261L709.475,279.618L712.215,278.944L714.954,292.15L717.694,283.832L720.434,281.643L728.653,282.131L731.393,271.796L734.132,280.951L736.872,300.103L739.612,270.397L747.831,283.687L750.571,298.46L753.311,290.774L756.05,290.699L758.79,279.387L767.009,273.177L769.749,257.265L772.489,261.434L775.228,257.016L777.968,247.657L786.187,259.135L788.927,250.772L791.667,246.358L794.406,241.561L797.146,233.374L805.365,231.099L808.105,242.68L810.845,235.921L813.584,239.027L816.324,230.099L824.658,235.257L827.397,227.859L830.137,237.3L832.877,229.481L835.616,231.873L843.836,236.495L846.575,231.02L849.315,234.854L852.055,247.302L854.795,207.662L863.014,216.344L865.753,208.157L868.493,201.495L871.233,192.446L873.973,184.508L882.192,169.633L884.932,176.336L887.671,188.452L890.411,191.126L893.151,188.004L901.37,181.201L904.11,170.096L906.849,171.363L909.589,176.981L912.329,191.838L920.548,188.511L923.288,190.879L926.027,180.739L928.767,186.801L931.507,187.397L939.726,198.113L942.466,201.796L945.205,202.792L947.945,192.779L950.685,187.722L958.904,169.144L961.644,166.175L964.384,158.597L967.123,168.204L969.863,148.18L978.082,147.102L980.822,162.702L983.562,148.592L986.301,145.956L989.041,145.921L997.26,147.97L1000,140.618" stroke="#b279a2" stroke-width="2"/></g></g><path class="foreground" aria-hidden="true" d="" display="none"/></g><g transform="translate(0,0)"><path class="background" aria-hidden="true" d="M0,0h1000v600h-1000Z"/><g><g class="mark-line role-mark marks" role="graphics-symbol" aria-roledescription="line mark container"><path d="M0,299.702L2.74,301.531L5.479,302.655L8.219,260.84L10.959,269.939L19.178,268.503L21.918,268.806L24.658,257.896L27.397,259.407L30.137,258.727L38.356,272.776L41.096,273.486L43.836,260.805L46.575,235.885L49.315,221.962L57.534,223.811L60.274,231.761L63.014,222.597L65.753,227.892L68.493,235.782L76.712,244.94L79.452,240.538L82.192,246.132L84.932,240.554L87.671,223.336L95.89,243.673L98.63,199.021L101.37,185.825L104.11,207.531L106.849,211.634L115.068,201.469L117.808,223.335L120.548,222.824L123.288,192.446L126.027,211.753L134.247,221.114L136.986,228.749L139.726,226.03L142.466,231.576L145.205,231.747L153.425,226.015L156.164,223.396L158.904,225.459L161.644,223.807L164.384,205.064L172.603,202.94L175.342,221.089L178.082,211.662L180.822,211.939L183.562,228.52L191.781,245.697L194.521,244.28L197.26,240.884L200,224.383L202.74,232.176L210.959,214.706L213.699,198.283L216.438,201.216L219.178,195.773L221.918,215.246L230.137,192.264L232.877,170.742L235.616,178.701L238.356,170.379L241.096,164.004L249.201,152.174L251.941,150.849L254.68,128.153L257.42,156.314L260.16,179.871L268.379,177.737L271.119,173.47L273.858,187.683L276.598,192.973L279.338,153.649L287.557,159.149L290.297,151.196L293.037,133.101L295.776,122.311L298.516,118.031L306.735,111.867L309.475,117.584L312.215,122.691L314.954,134.332L317.694,120.299L325.913,129.752L328.653,111.091L331.393,122.964L334.132,91.943L336.872,113.61L345.091,125.995L347.831,149.667L350.571,154.377L353.311,137.448L356.05,140.685L364.269,156.524L367.009,151.178L369.749,160.314L372.489,159.122L375.228,193.91L383.447,184.697L386.187,193.467L388.927,185.878L391.667,189.956L394.406,185.059L402.626,192.161L405.365,209.495L408.105,233.458L410.845,223.4L413.584,211.725L421.804,218.133L424.543,227.138L427.283,238.354L430.023,214.985L432.763,212.86L440.982,216.414L443.721,183.018L446.461,194.009L449.201,186.033L451.941,210.379L460.16,198.805L462.9,190.542L465.639,197.657L468.379,210.427L471.119,215.663L479.338,219.261L482.078,209.725L484.817,217.204L487.557,202.185L490.297,184.869L498.516,192.869L501.256,191.71L503.995,192.257L506.735,193.468L509.475,214.521L517.694,210.585L520.434,209.187L523.174,207.775L525.913,201.738L528.653,175.363L536.872,176.641L539.612,172.863L542.352,165.026L545.091,167.804L547.831,181.785L556.05,158.796L558.79,143.126L561.53,126.421L564.269,116.329L567.009,116.404L575.228,113.021L577.968,117.782L580.708,121.971L583.447,128.349L586.187,143.964L594.406,128.05L597.146,128.673L599.886,123.187L602.626,145.278L605.365,152.135L613.584,155.833L616.324,157.221L619.064,158.558L621.804,183.981L624.543,179.293L632.763,171.283L635.502,188.343L638.242,223.292L640.982,225.613L643.721,227.686L651.941,202.602L654.68,235.992L657.42,220.11L660.16,236.001L662.9,225.084L671.119,227.542L673.858,204.478L676.598,206.736L679.338,189.036L682.078,194.735L690.297,199.443L693.037,180.413L695.776,153.212L698.516,157.902L701.256,148.419L709.475,186.018L712.215,198.529L714.954,209.94L717.694,208.473L720.434,207.112L728.653,227.48L731.393,231.331L734.132,229.426L736.872,252.97L739.612,207.078L747.831,218.817L750.571,228.271L753.311,222.306L756.05,209.466L758.79,215.071L767.009,208.094L769.749,194.768L772.489,194.218L775.228,183.235L777.968,167.079L786.187,178.057L788.927,173.654L791.667,164.204L794.406,155.154L797.146,135.521L805.365,133.988L808.105,142.878L810.845,130.672L813.584,140.026L816.324,120.069L824.658,133.892L827.397,122.642L830.137,122.968L832.877,127.753L835.616,126.125L843.836,116.461L846.575,118.5L849.315,114.137L852.055,136.345L854.795,101.568L863.014,146.999L865.753,120.806L868.493,119.68L871.233,102.536L873.973,92.604L882.192,86.248L884.932,103.006L887.671,118.737L890.411,127.888L893.151,106.034L901.37,105.269L904.11,116.217L906.849,92.423L909.589,84.028L912.329,104.115L920.548,108.09L923.288,105.823L926.027,98.893L928.767,113.311L931.507,107.416L939.726,108.09L942.466,87.323L945.205,94.708L947.945,89.836L950.685,88.678L958.904,90.073L961.644,89.69L964.384,85.918L967.123,81.906L969.863,43.472L978.082,24.691L980.822,50.46L983.562,42.635L986.301,43.678L989.041,44.385L997.26,35.174L1000,44.848" stroke="#ff9da6" stroke-width="2"/></g></g><path class="foreground" aria-hidden="true" d="" display="none"/></g><g transform="translate(0,0)"><path class="background" aria-hidden="true" d="M0,0h1000v600h-1000Z"/><g><g class="mark-line role-mark marks" role="graphics-symbol" aria-roledescription="line mark container"><path d="M0,299.702L2.74,301.531L5.479,300.817L8.219,270.573L10.959,260.679L19.178,266.454L21.918,257.259L24.658,267.149L27.397,263.409L30.137,266.349L38.356,263.023L41.096,255.652L43.836,246.738L46.575,221.354L49.315,214.801L57.534,212.345L60.274,216.395L63.014,213.418L65.753,211.888L68.493,221.686L76.712,223.523L79.452,219.309L82.192,220.366L84.932,226.843L87.671,227.265L95.89,234.722L98.63,202.735L101.37,183.699L104.11,205.831L106.849,215.648L115.068,211.629L117.808,221.997L120.548,223.957L123.288,190.713L126.027,206.367L134.247,216.998L136.986,224.968L139.726,226.703L142.466,238.535L145.205,236.598L153.425,244.553L156.164,249.344L158.904,253.368L161.644,251.265L164.384,240.523L172.603,236.32L175.342,245.255L178.082,235.004L180.822,232.752L183.562,252.185L191.781,263.728L194.521,270.116L197.26,265.118L200,264.115L202.74,266.559L210.959,241.532L213.699,233.992L216.438,228.064L219.178,220.569L221.918,234.278L230.137,214.306L232.877,190.298L235.616,188.066L238.356,186.169L241.096,177.446L249.201,164.037L251.941,165.88L254.68,141.552L257.42,155.049L260.16,173.566L268.379,175.058L271.119,174.412L273.858,192.831L276.598,197.91L279.338,157.375L287.557,159.205L290.297,131.712L293.037,123.328L295.776,107.386L298.516,109.882L306.735,107.867L309.475,115.431L312.215,122.409L314.954,133.763L317.694,122.64L325.913,124.289L328.653,109.219L331.393,114.029L334.132,91.308L336.872,115.189L345.091,130.358L347.831,137.694L350.571,137.628L353.311,127.706L356.05,117.62L364.269,133.82L367.009,130.645L369.749,133.016L372.489,138.848L375.228,173.054L383.447,160.12L386.187,165.196L388.927,167.839L391.667,163.725L394.406,157.461L402.626,156.598L405.365,173.044L408.105,184.854L410.845,188.896L413.584,172.674L421.804,189.483L424.543,199.656L427.283,226.609L430.023,222.66L432.763,231.56L440.982,231.586L443.721,196.125L446.461,209.582L449.201,210.304L451.941,233.414L460.16,214.872L462.9,203.107L465.639,215.847L468.379,220.049L471.119,222.151L479.338,208.614L482.078,203.427L484.817,209.587L487.557,204.261L490.297,187.051L498.516,178.734L501.256,191.363L503.995,180.473L506.735,192.736L509.475,207.746L517.694,203.473L520.434,210.627L523.174,191.198L525.913,192.357L528.653,190.736L536.872,204.441L539.612,190.943L542.352,188.287L545.091,189.263L547.831,197.505L556.05,185.067L558.79,172.131L561.53,155.793L564.269,149.041L567.009,149.435L575.228,134.929L577.968,137.164L580.708,136.881L583.447,146.989L586.187,167.929L594.406,155.201L597.146,193.953L599.886,203.876L602.626,203.565L605.365,207.149L613.584,205.091L616.324,200.077L619.064,199.853L621.804,221.826L624.543,211.953L632.763,193.635L635.502,220.742L638.242,251.481L640.982,290.257L643.721,278.04L651.941,257.633L654.68,273.199L657.42,269.949L660.16,282.771L662.9,271.627L671.119,267.864L673.858,256.498L676.598,260.362L679.338,250.762L682.078,265.083L690.297,260.839L693.037,248.506L695.776,233.649L698.516,237.508L701.256,228.912L709.475,261.886L712.215,266.384L714.954,278.835L717.694,275.144L720.434,269.863L728.653,282.941L731.393,277.794L734.132,271.693L736.872,300.107L739.612,272.179L747.831,287.678L750.571,295.147L753.311,284.788L756.05,261.527L758.79,261.705L767.009,253.586L769.749,238.303L772.489,237.053L775.228,244.735L777.968,229.093L786.187,230.846L788.927,226.26L791.667,225.449L794.406,222.342L797.146,202.688L805.365,193.748L808.105,207.748L810.845,194.074L813.584,201.108L816.324,183.739L824.658,193.756L827.397,182.347L830.137,175.41L832.877,176.228L835.616,166.722L843.836,170.373L846.575,167.352L849.315,154.069L852.055,171.321L854.795,129.113L863.014,166.044L865.753,136.978L868.493,138.322L871.233,118.755L873.973,104.007L882.192,97.726L884.932,103.482L887.671,119.332L890.411,116.614L893.151,92.638L901.37,85.448L904.11,104.4L906.849,83.274L909.589,97.087L912.329,116.284L920.548,112.862L923.288,111.922L926.027,100.181L928.767,106.728L931.507,114.334L939.726,126.907L942.466,115.208L945.205,120.584L947.945,108.126L950.685,103.915L958.904,98.038L961.644,103.507L964.384,121.884L967.123,110.892L969.863,76.466L978.082,90.6L980.822,91.566L983.562,87.449L986.301,88.333L989.041,96.071L997.26,87.822L1000,98.908" stroke="#9d755d" stroke-width="2"/></g></g><path class="foreground" aria-hidden="true" d="" display="none"/></g></g><g class="mark-group role-legend" role="graphics-symbol" aria-roledescription="legend" aria-label="Symbol legend titled 'series' for stroke color with 9 values: AUDUSD, EURUSD, GBPUSD, JPYUSD, NZDUSD, ending with USDSEK"><g transform="translate(1020,0)"><path class="background" aria-hidden="true" d="M0,0h59v131h-59Z" pointer-events="none"/><g><g class="mark-group role-legend-entry"><g transform="translate(0,16)"><path class="background" aria-hidden="true" d="M0,0h0v0h0Z" pointer-events="none"/><g><g class="mark-group role-scope" role="graphics-object" aria-roledescription="group mark container"><g transform="translate(0,0)"><path class="background" aria-hidden="true" d="M0,0h58.783203125v11h-58.783203125Z" pointer-events="none" opacity="1"/><g><g class="mark-symbol role-legend-symbol" pointer-events="none"><path transform="translate(6,6)" d="M-5,0L5,0" stroke="#4c78a8" stroke-width="1.5" opacity="1"/></g><g class="mark-text role-legend-label" pointer-events="none"><text text-anchor="start" transform="translate(16,9)" font-family="sans-serif" font-size="10px" fill="#000" opacity="1">AUDUSD</text></g></g><path class="foreground" aria-hidden="true" d="" pointer-events="none" display="none"/></g><g transform="translate(0,13)"><path class="background" aria-hidden="true" d="M0,0h58.783203125v11h-58.783203125Z" pointer-events="none" opacity="1"/><g><g class="mark-symbol role-legend-symbol" pointer-events="none"><path transform="translate(6,6)" d="M-5,0L5,0" stroke="#f58518" stroke-width="1.5" opacity="1"/></g><g class="mark-text role-legend-label" pointer-events="none"><text text-anchor="start" transform="translate(16,9)" font-family="sans-serif" font-size="10px" fill="#000" opacity="1">EURUSD</text></g></g><path class="foreground" aria-hidden="true" d="" pointer-events="none" display="none"/></g><g transform="translate(0,26)"><path class="background" aria-hidden="true" d="M0,0h58.783203125v11h-58.783203125Z" pointer-events="none" opacity="1"/><g><g class="mark-symbol role-legend-symbol" pointer-events="none"><path transform="translate(6,6)" d="M-5,0L5,0" stroke="#e45756" stroke-width="1.5" opacity="1"/></g><g class="mark-text role-legend-label" pointer-events="none"><text text-anchor="start" transform="translate(16,9)" font-family="sans-serif" font-size="10px" fill="#000" opacity="1">GBPUSD</text></g></g><path class="foreground" aria-hidden="true" d="" pointer-events="none" display="none"/></g><g transform="translate(0,39)"><path class="background" aria-hidden="true" d="M0,0h58.783203125v11h-58.783203125Z" pointer-events="none" opacity="1"/><g><g class="mark-symbol role-legend-symbol" pointer-events="none"><path transform="translate(6,6)" d="M-5,0L5,0" stroke="#72b7b2" stroke-width="1.5" opacity="1"/></g><g class="mark-text role-legend-label" pointer-events="none"><text text-anchor="start" transform="translate(16,9)" font-family="sans-serif" font-size="10px" fill="#000" opacity="1">JPYUSD</text></g></g><path class="foreground" aria-hidden="true" d="" pointer-events="none" display="none"/></g><g transform="translate(0,52)"><path class="background" aria-hidden="true" d="M0,0h58.783203125v11h-58.783203125Z" pointer-events="none" opacity="1"/><g><g class="mark-symbol role-legend-symbol" pointer-events="none"><path transform="translate(6,6)" d="M-5,0L5,0" stroke="#54a24b" stroke-width="1.5" opacity="1"/></g><g class="mark-text role-legend-label" pointer-events="none"><text text-anchor="start" transform="translate(16,9)" font-family="sans-serif" font-size="10px" fill="#000" opacity="1">NZDUSD</text></g></g><path class="foreground" aria-hidden="true" d="" pointer-events="none" display="none"/></g><g transform="translate(0,65)"><path class="background" aria-hidden="true" d="M0,0h58.783203125v11h-58.783203125Z" pointer-events="none" opacity="1"/><g><g class="mark-symbol role-legend-symbol" pointer-events="none"><path transform="translate(6,6)" d="M-5,0L5,0" stroke="#eeca3b" stroke-width="1.5" opacity="1"/></g><g class="mark-text role-legend-label" pointer-events="none"><text text-anchor="start" transform="translate(16,9)" font-family="sans-serif" font-size="10px" fill="#000" opacity="1">USDCAD</text></g></g><path class="foreground" aria-hidden="true" d="" pointer-events="none" display="none"/></g><g transform="translate(0,78)"><path class="background" aria-hidden="true" d="M0,0h58.783203125v11h-58.783203125Z" pointer-events="none" opacity="1"/><g><g class="mark-symbol role-legend-symbol" pointer-events="none"><path transform="translate(6,6)" d="M-5,0L5,0" stroke="#b279a2" stroke-width="1.5" opacity="1"/></g><g class="mark-text role-legend-label" pointer-events="none"><text text-anchor="start" transform="translate(16,9)" font-family="sans-serif" font-size="10px" fill="#000" opacity="1">USDCHF</text></g></g><path class="foreground" aria-hidden="true" d="" pointer-events="none" display="none"/></g><g transform="translate(0,91)"><path class="background" aria-hidden="true" d="M0,0h58.783203125v11h-58.783203125Z" pointer-events="none" opacity="1"/><g><g class="mark-symbol role-legend-symbol" pointer-events="none"><path transform="translate(6,6)" d="M-5,0L5,0" stroke="#ff9da6" stroke-width="1.5" opacity="1"/></g><g class="mark-text role-legend-label" pointer-events="none"><text text-anchor="start" transform="translate(16,9)" font-family="sans-serif" font-size="10px" fill="#000" opacity="1">USDNOK</text></g></g><path class="foreground" aria-hidden="true" d="" pointer-events="none" display="none"/></g><g transform="translate(0,104)"><path class="background" aria-hidden="true" d="M0,0h58.783203125v11h-58.783203125Z" pointer-events="none" opacity="1"/><g><g class="mark-symbol role-legend-symbol" pointer-events="none"><path transform="translate(6,6)" d="M-5,0L5,0" stroke="#9d755d" stroke-width="1.5" opacity="1"/></g><g class="mark-text role-legend-label" pointer-events="none"><text text-anchor="start" transform="translate(16,9)" font-family="sans-serif" font-size="10px" fill="#000" opacity="1">USDSEK</text></g></g><path class="foreground" aria-hidden="true" d="" pointer-events="none" display="none"/></g></g></g><path class="foreground" aria-hidden="true" d="" pointer-events="none" display="none"/></g></g><g class="mark-text role-legend-title" pointer-events="none"><text text-anchor="start" transform="translate(0,9)" font-family="sans-serif" font-size="11px" font-weight="bold" fill="#000" opacity="1">series</text></g></g><path class="foreground" aria-hidden="true" d="" pointer-events="none" display="none"/></g></g></g><path class="foreground" aria-hidden="true" d="" display="none"/></g></g></g></svg>